# xmcd
#
# Track frame offsets: 
#        150
#        18347
#        34882
#        50375
#        66804
#        83842
#        101875
#        115766
#        130829
#        150902
#        168131
#        185380
#        201526
#        219670
#        240064
#        261156
#        283130
#        298743
#
# Disc length: 4184 seconds
#
# Revision: 3
# Processed by: cddbd v1.5.2PL0 Copyright (c) Steve Scherf et al.
# Submitted via: ExactAudioCopyFreeDBPlugin 1.0
#
DISCID=fd105612
DTITLE=Various Artist - The R&B Collection II Disk One
DYEAR=2004
DGENRE=R&B
TTITLE0=OutKast - Hey Ya!
TTITLE1=Christina Milian feat. Fabolous - Dip It Low
TTITLE2=Jay-Z feat. Beyoncé Knowles - 03' Bonnie and Clyde
TTITLE3=Usher - Pop Ya Collar
TTITLE4=Eamon - I Don't Want You Back
TTITLE5=Baby Bash - Suga Suga
TTITLE6=R Kelly - Ignition - Remix
TTITLE7=Britney Spears - Toxic
TTITLE8=Justin Timberlake - Rock Your Body
TTITLE9=Shaggy - It Wasn't Me
TTITLE10=Blu Cantrell feat. Sean Paul - Breathe
TTITLE11=Wyclef Jean - Gone Till November
TTITLE12=Donell Jones - U Know What's Up
TTITLE13=Toni Braxton - Un-Break My Heart
TTITLE14=TLC - Waterfalls
TTITLE15=Melanie C feat. Lisa "Left Eye" Lopes - Never Be The Same Aga
TTITLE15=in
TTITLE16=Pink - There You Go
TTITLE17=Mya - Case of the Ex Whatcha Gonna Do
EXTD=YEAR: 2004
EXTT0=
EXTT1=
EXTT2=
EXTT3=
EXTT4=
EXTT5=
EXTT6=
EXTT7=
EXTT8=
EXTT9=
EXTT10=
EXTT11=
EXTT12=
EXTT13=
EXTT14=
EXTT15=
EXTT16=
EXTT17=
PLAYORDER=
